<svg width="17" height="17" viewBox="0 0 17 17" fill="none" xmlns="http://www.w3.org/2000/svg">
<path d="M4.10392 8.91185L8.91236 4.1034C9.39062 3.62514 10.0393 3.35646 10.7156 3.35646C11.392 3.35646 12.0407 3.62514 12.5189 4.1034C12.9972 4.58166 13.2659 5.23031 13.2659 5.90667C13.2659 6.58303 12.9972 7.23169 12.5189 7.70995L6.80862 13.4194C6.56815 13.6516 6.24608 13.7802 5.91178 13.7773C5.57748 13.7744 5.25769 13.6403 5.0213 13.4039C4.7849 13.1675 4.65081 12.8477 4.64791 12.5134C4.645 12.1791 4.77351 11.857 5.00577 11.6165L10.1143 6.50805C10.1941 6.42836 10.2389 6.32023 10.239 6.20745C10.2391 6.09467 10.1944 5.98648 10.1147 5.90667C10.035 5.82687 9.92687 5.78199 9.81409 5.78191C9.70131 5.78183 9.59312 5.82656 9.51332 5.90625L4.40482 11.0147C4.00913 11.4138 3.78762 11.9533 3.78877 12.5153C3.78992 13.0773 4.01363 13.6159 4.41095 14.0134C4.80827 14.4108 5.34684 14.6347 5.90882 14.636C6.47079 14.6373 7.0104 14.4159 7.40956 14.0203L13.1199 8.3109C13.7576 7.67326 14.1159 6.80839 14.116 5.90655C14.1161 5.00471 13.7579 4.13978 13.1203 3.50202C12.4826 2.86427 11.6178 2.50594 10.7159 2.50586C9.8141 2.50578 8.94917 2.86396 8.31141 3.5016L3.50211 8.3109C3.4247 8.39105 3.38186 8.49841 3.38283 8.60984C3.3838 8.72128 3.42849 8.82787 3.50729 8.90667C3.58609 8.98547 3.69269 9.03017 3.80412 9.03113C3.91555 9.0321 4.02376 8.98926 4.10392 8.91185Z" fill="#272727"/>
</svg>
