<svg width="17" height="17" viewBox="0 0 17 17" fill="none" xmlns="http://www.w3.org/2000/svg">
<path d="M8.7845 15.8678C4.87238 15.8678 1.70117 12.6966 1.70117 8.7845C1.70117 4.87238 4.87238 1.70117 8.7845 1.70117C12.6966 1.70117 15.8678 4.87238 15.8678 8.7845C15.8678 12.6966 12.6966 15.8678 8.7845 15.8678ZM8.7845 14.4512C10.2874 14.4512 11.7287 13.8541 12.7914 12.7914C13.8541 11.7287 14.4512 10.2874 14.4512 8.7845C14.4512 7.28161 13.8541 5.84027 12.7914 4.77757C11.7287 3.71486 10.2874 3.11784 8.7845 3.11784C7.28161 3.11784 5.84027 3.71486 4.77757 4.77757C3.71486 5.84027 3.11784 7.28161 3.11784 8.7845C3.11784 10.2874 3.71486 11.7287 4.77757 12.7914C5.84027 13.8541 7.28161 14.4512 8.7845 14.4512ZM5.24284 8.7845H6.6595C6.6595 9.34809 6.88339 9.88859 7.2819 10.2871C7.68042 10.6856 8.22092 10.9095 8.7845 10.9095C9.34809 10.9095 9.88859 10.6856 10.2871 10.2871C10.6856 9.88859 10.9095 9.34809 10.9095 8.7845H12.3262C12.3262 9.72381 11.953 10.6247 11.2888 11.2888C10.6247 11.953 9.72381 12.3262 8.7845 12.3262C7.8452 12.3262 6.94436 11.953 6.28017 11.2888C5.61598 10.6247 5.24284 9.72381 5.24284 8.7845Z" fill="#272727"/>
</svg>
